<svg viewBox="0 0 370 78.46277635269607" height="78.46277635269607" width="370">
    <defs id="SvgjsDefs1044"></defs>
    <g id="SvgjsG1045" featurekey="symbolFeature-0"
        transform="matrix(1.3072129344415981,0,0,1.3072129344415981,-17.32941764808129,-14.37934227885758)" fill="#fff">
        <g xmlns="http://www.w3.org/2000/svg">
            <defs>
                <rect id="a" width="80" height="80"></rect>
            </defs>
            <clipPath id="b">
                <use xmlns:xlink="http://www.w3.org/1999/xlink" xlink:href="#a" style="" overflow="visible"></use>
            </clipPath>
            <path
                d="M64,11H16c-1.7,0-3,1.4-2.7,3.1l6.4,44.1c0.2,1.4,1.3,3,2.6,3.6L37.8,70c1.3,0.7,3.2,0.7,4.5,0l15.5-8.1   c1.3-0.7,2.4-2.2,2.6-3.6l6.4-44.1C66.9,12.4,65.7,11,64,11 M58.3,57.9c-0.1,0.8-0.8,1.8-1.5,2.2l-15.5,8.1c-0.7,0.4-1.9,0.4-2.6,0   L23.2,60c-0.7-0.4-1.4-1.4-1.5-2.2l-6.4-44.1C15.2,13.3,15.5,13,16,13h48c0.5,0,0.8,0.4,0.7,0.8L58.3,57.9z"
                style="clip-path: url(#b);"></path>
            <path
                d="M32.7,28.3c-0.4-0.4-1-0.4-1.4,0l-8,8c-0.4,0.4-0.4,1,0,1.4l8,8c0.4,0.4,1,0.4,1.4,0c0.4-0.4,0.4-1,0-1.4   L25.4,37l7.3-7.3C33.1,29.3,33.1,28.7,32.7,28.3"
                style="clip-path: url(#b);"></path>
            <path
                d="M48.7,28.3c-0.4-0.4-1-0.4-1.4,0c-0.4,0.4-0.4,1,0,1.4l7.3,7.3l-7.3,7.3c-0.4,0.4-0.4,1,0,1.4   c0.4,0.4,1,0.4,1.4,0l8-8c0.4-0.4,0.4-1,0-1.4L48.7,28.3z"
                style="clip-path: url(#b);"></path>
            <path
                d="M45.4,26.1c-0.5-0.2-1.1,0-1.3,0.4l-10,20c-0.2,0.5,0,1.1,0.4,1.3c0.5,0.2,1.1,0,1.3-0.4l10-20   C46.1,27,45.9,26.4,45.4,26.1"
                style="clip-path: url(#b);"></path>
        </g>
    </g>
    <g id="SvgjsG1046" featurekey="nameFeature-0"
        transform="matrix(2.8022416308211637,0,0,2.8022416308211637,81.92954511875688,-33.6268968974281)" fill="#fff">
        <path
            d="M25.4 25.72 l2.68 -13.72 l6.4 0 l-5.44 28 l-6.4 0 l-3.96 -15.4 l-3.92 15.4 l-6.44 0 l-5.44 -28 l6.44 0 l2.64 13.72 l3.52 -13.72 l6.44 0 z M57.84 18.44 l-11.2 0 l0 4.36 l8.04 0 l0 6.4 l-8.04 0 l0 4.4 l11.2 0 l0 6.4 l-17.6 0 l0 -28 l17.6 0 l0 6.44 z M70 12 l0 21.6 l10.32 0 l0 6.4 l-16.72 0 l0 0 l0 -28 l6.4 0 z M92.48 12 l0 21.6 l10.32 0 l0 6.4 l-16.72 0 l0 0 l0 -28 l6.4 0 z">
        </path>
    </g>
</svg>